<?xml version="1.0" standalone="no"?>
<!DOCTYPE svg PUBLIC "-//W3C//DTD SVG 20010904//EN"
 "http://www.w3.org/TR/2001/REC-SVG-20010904/DTD/svg10.dtd">
<svg version="1.0" xmlns="http://www.w3.org/2000/svg"
 width="1000.000000pt" height="1000.000000pt" viewBox="0 0 1000.000000 1000.000000"
 preserveAspectRatio="xMidYMid meet">
<metadata>
Created by potrace 1.14, written by Peter Selinger 2001-2017
</metadata>
<g transform="translate(0.000000,1000.000000) scale(0.100000,-0.100000)"
fill="#000000" stroke="none">
<path d="M3123 7297 c-4 -6 -7 -4525 -3 -4579 0 -5 249 -8 554 -8 434 0 555 3
558 13 2 6 3 472 3 1035 -1 562 1 1022 4 1021 4 0 35 -41 71 -91 36 -49 83
-114 105 -143 22 -29 47 -63 55 -75 8 -12 20 -28 25 -34 6 -6 22 -27 35 -46
13 -19 83 -114 154 -210 71 -96 164 -222 207 -280 103 -139 402 -545 423 -573
9 -12 53 -72 99 -133 45 -62 144 -195 219 -298 l138 -186 780 0 780 0 0 2295
0 2295 -152 1 c-208 1 -1458 1 -1485 0 -23 -1 -39 -20 -218 -266 -60 -82 -113
-154 -118 -160 -7 -9 -209 -284 -242 -330 -8 -11 -43 -58 -78 -105 -34 -47
-98 -134 -142 -195 -44 -60 -84 -115 -90 -121 -5 -6 -17 -21 -25 -34 -8 -12
-64 -88 -123 -168 -60 -81 -115 -156 -123 -167 -24 -34 -213 -289 -221 -300
-5 -5 -24 -31 -42 -57 -19 -27 -35 -48 -36 -48 -1 0 -1 437 -1 971 1 582 -3
973 -8 977 -15 9 -1097 8 -1103 -1z m3457 -2213 l0 -1596 -223 299 c-122 164
-283 380 -358 481 -75 100 -145 194 -155 207 -11 14 -110 148 -222 298 -111
149 -209 280 -218 290 -8 10 -11 23 -7 30 7 13 169 230 190 257 11 13 186 249
227 305 34 46 306 411 314 420 4 6 19 26 32 45 14 19 27 37 30 40 3 3 57 75
120 160 63 85 119 160 125 167 5 6 39 52 75 101 36 50 66 91 68 91 1 1 2 -717
2 -1595z"/>
</g>
</svg>
