<?xml version="1.0" standalone="no"?>
<!DOCTYPE svg PUBLIC "-//W3C//DTD SVG 20010904//EN"
 "http://www.w3.org/TR/2001/REC-SVG-20010904/DTD/svg10.dtd">
<svg version="1.0" xmlns="http://www.w3.org/2000/svg"
 width="600.000000pt" height="600.000000pt" viewBox="0 0 600.000000 600.000000"
 preserveAspectRatio="xMidYMid meet">
<metadata>
Created by potrace 1.14, written by Peter Selinger 2001-2017
</metadata>
<g transform="translate(0.000000,600.000000) scale(0.100000,-0.100000)"
fill="#000000" stroke="none">
<path d="M1994 4780 c-67 -27 -123 -76 -159 -141 l-30 -54 0 -1585 0 -1585 27
-51 c34 -64 105 -128 165 -148 60 -21 157 -20 210 2 66 27 2650 1523 2693
1560 59 50 93 128 94 216 0 62 -4 82 -32 139 -20 40 -47 77 -70 95 -32 25
-2578 1499 -2672 1547 -53 28 -163 30 -226 5z"/>
</g>
</svg>
