<svg width="3911" height="787" viewBox="0 0 3911 787" fill="none" xmlns="http://www.w3.org/2000/svg">
<rect x="392" y="164" width="75" height="459" fill="#FFA800"/>
<path d="M450.016 623L272.896 385.528L438.208 163.8H301.104L157.44 359.288V163.8H45.92V623H157.44V415.048L310.944 623H450.016Z" fill="#FFA800"/>
<path d="M587.56 91.64C549.512 91.64 519.992 118.536 519.992 155.272C519.992 192.664 549.512 219.56 587.56 219.56C626.92 219.56 655.128 192.664 655.128 155.272C655.128 118.536 626.92 91.64 587.56 91.64ZM531.8 623H643.32V262.2H531.8V623ZM924.437 253.672C879.829 253.672 846.373 270.728 820.133 302.872V262.2H708.613V623H820.133V431.448C820.133 381.592 842.437 359.944 886.389 359.944C931.653 359.944 943.461 382.904 943.461 422.264V623H1054.98V397.336C1054.98 309.432 1005.78 253.672 924.437 253.672ZM1299.7 253.672C1195.4 253.672 1110.77 333.704 1110.77 442.6C1110.77 550.84 1194.08 631.528 1299.7 631.528C1405.32 631.528 1488.63 551.496 1488.63 442.6C1488.63 333.704 1404 253.672 1299.7 253.672ZM1299.7 359.944C1343 359.944 1375.8 392.744 1375.8 442.6C1375.8 493.112 1343 525.256 1299.7 525.256C1257.06 525.256 1223.6 493.112 1223.6 442.6C1223.6 392.744 1256.4 359.944 1299.7 359.944ZM1728.23 333.704C1682.97 323.864 1661.98 321.24 1661.98 299.592C1661.98 279.912 1677.06 259.576 1726.92 259.576C1779.4 259.576 1794.49 280.568 1801.05 307.464H1913.88C1906.01 228.088 1856.81 155.272 1726.92 155.272C1639.67 155.272 1549.8 203.816 1549.8 304.84C1549.8 399.96 1626.55 427.512 1701.34 443.256C1778.09 459.656 1805.64 461.624 1805.64 488.52C1805.64 512.792 1785.3 527.224 1740.04 527.224C1681.66 527.224 1661.32 509.512 1650.82 471.464H1537.99C1547.18 549.528 1600.31 631.528 1740.7 631.528C1814.17 631.528 1917.82 596.104 1917.82 483.928C1917.82 390.12 1856.81 361.256 1728.23 333.704ZM2157.53 253.672C2045.35 253.672 1967.29 335.672 1967.29 442.6C1967.29 549.528 2044.69 631.528 2160.15 631.528C2238.21 631.528 2313.65 594.136 2338.58 504.92H2223.78C2215.25 531.16 2190.33 545.592 2160.15 545.592C2121.45 545.592 2086.02 521.976 2080.77 466.216H2343.83C2354.98 347.48 2276.92 253.672 2157.53 253.672ZM2156.87 339.608C2196.89 339.608 2220.5 363.88 2227.72 398.648H2084.05C2093.24 363.88 2116.85 339.608 2156.87 339.608ZM2656.4 262.2V302.872C2633.44 273.352 2599.33 253.672 2553.41 253.672C2463.54 253.672 2391.38 330.424 2391.38 442.6C2391.38 554.12 2462.23 631.528 2554.07 631.528C2599.99 631.528 2632.79 612.504 2655.75 584.296V623H2767.27L2767.92 262.2H2656.4ZM2580.31 525.256C2537.67 525.256 2504.21 493.112 2504.21 442.6C2504.21 392.744 2537.01 359.944 2580.31 359.944C2623.6 359.944 2656.4 392.744 2656.4 442.6C2656.4 493.112 2623.6 525.256 2580.31 525.256ZM3050.05 253.672C3004.13 253.672 2967.39 274.008 2945.09 317.96V262.2H2833.57V623H2945.09V466.872C2945.09 384.872 2995.6 369.128 3048.08 369.128C3058.57 369.128 3063.17 369.784 3070.38 370.44V255.64C3065.13 254.328 3058.57 253.672 3050.05 253.672ZM3298.45 631.528C3386.35 631.528 3469.01 579.704 3480.82 479.992H3366.02C3357.49 514.104 3328.63 528.536 3298.45 528.536C3251.87 528.536 3222.35 494.424 3222.35 442.6C3222.35 392.088 3249.91 356.664 3299.11 356.664C3328.63 356.664 3357.49 369.784 3366.02 404.552H3480.82C3469.67 308.12 3388.98 253.672 3299.11 253.672C3188.24 253.672 3109.52 335.672 3109.52 442.6C3109.52 549.528 3188.24 631.528 3298.45 631.528ZM3752.23 253.672C3707.62 253.672 3674.17 270.728 3647.93 302.872V117.88H3536.41V623H3647.93V431.448C3647.93 381.592 3670.23 359.944 3713.53 359.944C3758.14 359.944 3769.94 382.904 3769.94 422.264V623H3881.46V397.336C3881.46 309.432 3832.26 253.672 3752.23 253.672Z" fill="#FFA800"/>
</svg>
